<svg width="237" height="31" viewBox="0 0 237 31" fill="none" xmlns="http://www.w3.org/2000/svg">
<path fill-rule="evenodd" clip-rule="evenodd" d="M128.942 0C124.057 0 120.097 3.96743 120.097 8.86154V4.8C120.097 3.16864 118.777 1.84615 117.148 1.84615V24H128.941C128.942 22.3318 127.824 21.0411 126.257 20.5418C121.115 18.9025 119.913 14.2154 120.097 11.4462C120.097 7.52587 124.395 3.46234 127.953 2.91887C131.158 2.4293 134.144 3.3009 135.243 6.23311C136.343 9.16532 134.862 12.4356 131.935 13.5374C131.012 13.8851 129.904 13.7412 128.804 13.5981C127.425 13.4189 126.057 13.241 125.072 14.0308C123.178 16.8773 126.854 17.7231 128.942 17.7231C135.022 17.7231 137.786 14.4 137.786 8.86154V0H128.942ZM122.861 12.5538C123.353 11.7095 124.975 11.1621 125.993 11.0302C126.771 10.9295 127.416 11.0365 128.05 11.1416C128.663 11.2431 129.264 11.3429 129.964 11.2522C131.515 11.0513 132.609 9.6293 132.408 8.07611C132.208 6.52284 130.859 5.62734 129.238 5.62725C125.809 5.62716 122.861 8.67692 122.861 12.5538ZM78.7999 10.4324V23.9999H82.5339V10.4324H87.6806V7.39488H82.5339V6.58488C82.5339 5.79738 82.6572 5.18988 82.9039 4.76238C83.173 4.33488 83.543 4.04238 84.014 3.88488C84.4849 3.72738 85.0231 3.65988 85.6286 3.68238H87.7142V0.442383H84.9895C83.6888 0.442383 82.5675 0.644883 81.6256 1.04988C80.7061 1.45488 79.9997 2.08488 79.5063 2.93988C79.0354 3.79488 78.7999 4.89738 78.7999 6.24738V7.39488H70.4575V7.12488C70.4575 6.33738 70.5808 5.74113 70.8275 5.33613C71.0966 4.90863 71.4666 4.61613 71.9376 4.45863C72.4085 4.27863 72.9468 4.19988 73.5523 4.22238H75.6715V0.982382H72.8795C71.6012 0.982382 70.4911 1.18488 69.5492 1.58988C68.6298 1.99488 67.9233 2.62488 67.43 3.47988C66.959 4.33488 66.7236 5.43738 66.7236 6.78738V7.39488H63.4269V10.4324H66.7236V23.9999H70.4575V10.4324H78.7999ZM4.55749 20.6924V2.12988H0.722656V23.9999H18.1476V20.6924H4.55749ZM38.7691 18.4649H35.1697C34.9006 19.3199 34.3175 20.0061 33.4205 20.5236C32.5459 21.0411 31.4582 21.2999 30.1575 21.2999C28.9914 21.2999 27.971 21.0974 27.0964 20.6924C26.2218 20.2649 25.5266 19.6799 25.0108 18.9374C24.5174 18.1724 24.2146 17.3174 24.1025 16.3724H38.87C38.9821 14.2349 38.713 12.4686 38.0627 11.0736C37.4123 9.65613 36.4144 8.59863 35.0688 7.90113C33.7457 7.18113 32.0861 6.82113 30.0902 6.82113C28.1616 6.82113 26.4572 7.18113 24.9771 7.90113C23.5194 8.62113 22.3757 9.64488 21.5459 10.9724C20.7162 12.2999 20.3013 13.8524 20.3013 15.6299C20.3013 17.4299 20.7274 18.9824 21.5796 20.2874C22.4318 21.5924 23.6091 22.6049 25.1117 23.3249C26.6142 24.0224 28.3186 24.3711 30.2248 24.3711C31.9067 24.3711 33.3532 24.1236 34.5642 23.6286C35.7752 23.1111 36.7283 22.4136 37.4235 21.5361C38.1412 20.6361 38.5897 19.6124 38.7691 18.4649ZM26.2218 11.0061C27.2085 10.2411 28.4644 9.85863 29.9893 9.85863C31.4694 9.85863 32.6692 10.2186 33.5887 10.9386C34.5081 11.6361 35.0127 12.6149 35.1024 13.8749H24.3043C24.5959 12.7049 25.235 11.7486 26.2218 11.0061ZM49.6681 24.3711C48.1431 24.3711 46.7415 23.9999 45.4632 23.2574C44.2074 22.5149 43.1982 21.4911 42.4357 20.1861C41.6957 18.8586 41.3256 17.3399 41.3256 15.6299C41.3256 13.8749 41.7069 12.3449 42.4694 11.0399C43.2318 9.71238 44.2634 8.67738 45.5641 7.93488C46.8648 7.19238 48.3225 6.82113 49.9372 6.82113C51.7313 6.82113 53.1553 7.21488 54.2093 8.00238C55.2634 8.78988 56.0146 9.84738 56.4632 11.1749C56.5643 11.4741 56.654 11.7813 56.7323 12.0966V7.19238H60.4998V23.9999H57.0014L56.9341 23.3586C56.8892 22.9311 56.8444 22.4136 56.7995 21.8061C56.7547 21.1761 56.7323 20.5799 56.7323 20.0174V18.5661C56.4632 19.5786 56.0371 20.5236 55.454 21.4011C54.8933 22.2786 54.1309 22.9986 53.1665 23.5611C52.2246 24.1011 51.0585 24.3711 49.6681 24.3711ZM56.0259 18.5324C56.4968 17.6774 56.7323 16.7099 56.7323 15.6299C56.7323 14.4374 56.4968 13.4249 56.0259 12.5924C55.5549 11.7374 54.8821 11.0849 54.0075 10.6349C53.1329 10.1624 52.0677 9.92613 50.8118 9.92613C49.0177 9.92613 47.6273 10.4549 46.6406 11.5124C45.6538 12.5699 45.1605 13.9424 45.1605 15.6299C45.1605 16.7324 45.3959 17.7111 45.8669 18.5661C46.3603 19.4211 47.033 20.0849 47.8852 20.5574C48.7374 21.0299 49.7129 21.2661 50.8118 21.2661C52.0677 21.2661 53.1329 21.0299 54.0075 20.5574C54.9046 20.0624 55.5773 19.3874 56.0259 18.5324ZM88.7468 7.19238H92.7498L98.0477 19.8329L103.413 7.19238H107.416L96.652 30.7499H92.7162L96.1924 23.8001L88.7468 7.19238ZM166.588 18.4649H162.988C162.719 19.3199 162.136 20.0061 161.239 20.5236C160.364 21.0411 159.277 21.2999 157.976 21.2999C156.81 21.2999 155.789 21.0974 154.915 20.6924C154.04 20.2649 153.345 19.6799 152.829 18.9374C152.336 18.1724 152.033 17.3174 151.921 16.3724H166.688C166.801 14.2349 166.531 12.4686 165.881 11.0736C165.231 9.65613 164.233 8.59863 162.887 7.90113C161.564 7.18113 159.905 6.82113 157.909 6.82113C155.98 6.82113 154.276 7.18113 152.796 7.90113C151.338 8.62113 150.194 9.64488 149.364 10.9724C148.535 12.2999 148.12 13.8524 148.12 15.6299C148.12 17.4299 148.546 18.9824 149.398 20.2874C150.25 21.5924 151.428 22.6049 152.93 23.3249C154.433 24.0224 156.137 24.3711 158.043 24.3711C159.725 24.3711 161.172 24.1236 162.383 23.6286C163.594 23.1111 164.547 22.4136 165.242 21.5361C165.96 20.6361 166.408 19.6124 166.588 18.4649ZM154.04 11.0061C155.027 10.2411 156.283 9.85863 157.808 9.85863C159.288 9.85863 160.488 10.2186 161.407 10.9386C162.327 11.6361 162.831 12.6149 162.921 13.8749H152.123C152.414 12.7049 153.053 11.7486 154.04 11.0061ZM177.487 24.3711C175.962 24.3711 174.56 23.9999 173.282 23.2574C172.026 22.5149 171.017 21.4911 170.254 20.1861C169.514 18.8586 169.144 17.3399 169.144 15.6299C169.144 13.8749 169.525 12.3449 170.288 11.0399C171.05 9.71238 172.082 8.67738 173.383 7.93488C174.683 7.19238 176.141 6.82113 177.756 6.82113C179.55 6.82113 180.974 7.21488 182.028 8.00238C183.082 8.78988 183.833 9.84738 184.282 11.1749C184.383 11.4741 184.472 11.7813 184.551 12.0966V7.19238H188.318V23.9999H184.82L184.753 23.3586C184.708 22.9311 184.663 22.4136 184.618 21.8061C184.573 21.1761 184.551 20.5799 184.551 20.0174V18.5661C184.282 19.5786 183.856 20.5236 183.272 21.4011C182.712 22.2786 181.949 22.9986 180.985 23.5611C180.043 24.1011 178.877 24.3711 177.487 24.3711ZM183.844 18.5324C184.315 17.6774 184.551 16.7099 184.551 15.6299C184.551 14.4374 184.315 13.4249 183.844 12.5924C183.373 11.7374 182.701 11.0849 181.826 10.6349C180.951 10.1624 179.886 9.92613 178.63 9.92613C176.836 9.92613 175.446 10.4549 174.459 11.5124C173.472 12.5699 172.979 13.9424 172.979 15.6299C172.979 16.7324 173.214 17.7111 173.685 18.5661C174.179 19.4211 174.851 20.0849 175.704 20.5574C176.556 21.0299 177.531 21.2661 178.63 21.2661C179.886 21.2661 180.951 21.0299 181.826 20.5574C182.723 20.0624 183.396 19.3874 183.844 18.5324ZM196.157 7.19238H192.423V23.9999H196.157V14.6451C196.366 14.1302 196.657 13.6035 197.031 13.0649C197.547 12.3224 198.231 11.6924 199.083 11.1749C199.958 10.6574 201.001 10.3986 202.212 10.3986V6.82113C201.247 6.82113 200.406 7.00113 199.689 7.36113C198.994 7.72113 198.399 8.19363 197.906 8.77863C197.435 9.34113 197.054 9.92613 196.762 10.5336C196.493 11.1411 196.291 11.7036 196.157 12.2211V7.19238ZM203.926 7.19238H207.962V2.66988H211.73V7.19238H215.767V10.2636H211.73V23.9999H207.962V10.2636H203.926V7.19238ZM232.764 14.2799V23.9999H236.498V13.0649C236.498 12.0524 236.33 11.1636 235.994 10.3986C235.68 9.61113 235.22 8.95863 234.614 8.44113C234.031 7.90113 233.325 7.49613 232.495 7.22613C231.688 6.95613 230.802 6.82113 229.838 6.82113C228.806 6.82113 227.864 7.00113 227.012 7.36113C226.16 7.69863 225.42 8.15988 224.792 8.74488C224.164 9.32988 223.659 10.0049 223.278 10.7699C223.07 11.1758 222.901 11.5917 222.773 12.0178V0.442383H219.04V23.9999H222.773V14.0148C222.935 13.5107 223.182 13.0365 223.514 12.5924C224.052 11.8724 224.747 11.2986 225.599 10.8711C226.451 10.4211 227.393 10.1961 228.425 10.1961C229.456 10.1961 230.286 10.3536 230.914 10.6686C231.542 10.9836 232.002 11.4449 232.293 12.0524C232.607 12.6374 232.764 13.3799 232.764 14.2799Z" fill="#47602E"/>
</svg>
