<svg width="348" height="108" viewBox="0 0 348 108" fill="none" xmlns="http://www.w3.org/2000/svg">
<path fill-rule="evenodd" clip-rule="evenodd" d="M286.214 21.1849V49.9562H294.158V21.1849H305.108V14.7435H294.158V13.0258C294.158 11.3558 294.42 10.0676 294.945 9.16102C295.518 8.25446 296.305 7.63418 297.307 7.30019C298.309 6.96619 299.454 6.82305 300.742 6.87076H305.18V0H299.383C296.615 0 294.229 0.429423 292.225 1.28827C290.269 2.14711 288.766 3.48309 287.717 5.29621C286.715 7.10933 286.214 9.4473 286.214 12.3101V14.7435H268.464V14.171C268.464 12.501 268.726 11.2366 269.251 10.3777C269.824 9.47116 270.611 8.85088 271.613 8.51688C272.615 8.13518 273.76 7.96818 275.048 8.01589H279.557V1.14513H273.617C270.897 1.14513 268.536 1.57455 266.532 2.4334C264.575 3.29224 263.072 4.62822 262.023 6.44134C261.021 8.25446 260.52 10.5924 260.52 13.4552V14.7435H253.506V21.1849H260.52V49.9562H268.464V21.1849H286.214ZM12.7237 42.0036C12.7237 20.9223 29.8134 3.83269 50.8948 3.83269H89.0659V42.0036C89.0659 65.8604 77.1374 80.1745 50.8948 80.1745C41.8853 80.1745 26.0206 76.5315 34.1949 64.27C38.4471 60.8682 44.3514 61.6343 50.2989 62.4061H50.2989C55.0498 63.0226 59.8282 63.6427 63.8142 62.1448C76.4455 57.3987 82.8368 43.3122 78.0903 30.6817C73.3445 18.0513 60.4585 14.2968 46.6266 16.4057C31.2715 18.7466 12.7237 36.2502 12.7237 53.1368C11.9285 65.0652 17.1178 85.255 39.3106 92.3161C46.07 94.4668 50.8949 100.027 50.8915 107.212H0V11.785C7.0271 11.785 12.7237 17.4815 12.7237 24.5086V42.0036ZM38.1711 51.3452C33.7771 51.9133 26.7754 54.271 24.6522 57.9082C24.6522 41.2084 37.3759 28.0716 52.1746 28.072C59.1709 28.0724 64.9907 31.9297 65.8558 38.6204C66.721 45.3107 61.9985 51.4361 55.3082 52.3012C52.2881 52.692 49.6914 52.2623 47.049 51.8251C44.3124 51.3722 41.5268 50.9113 38.1711 51.3452ZM307.376 14.3128H315.893L327.165 41.1185L338.581 14.3128H347.098L324.195 64.269H315.821L323.217 49.5312L307.376 14.3128ZM224.234 50.7457C220.989 50.7457 218.007 49.9584 215.287 48.3839C212.615 46.8093 210.468 44.6384 208.846 41.871C207.271 39.0559 206.484 35.8352 206.484 32.209C206.484 28.4873 207.295 25.2428 208.917 22.4754C210.54 19.6603 212.735 17.4654 215.502 15.8909C218.269 14.3163 221.371 13.5291 224.806 13.5291C228.623 13.5291 231.653 14.3641 233.896 16.034C236.138 17.704 237.737 19.9466 238.691 22.7617C238.906 23.3962 239.097 24.0477 239.263 24.7162V14.3163H247.279V49.9584H239.836L239.693 48.5986C239.597 47.692 239.502 46.5946 239.407 45.3064C239.311 43.9704 239.263 42.706 239.263 41.5131V38.4356C238.691 40.5827 237.784 42.5867 236.544 44.4475C235.351 46.3083 233.729 47.8352 231.677 49.028C229.673 50.1731 227.192 50.7457 224.234 50.7457ZM237.76 38.364C238.762 36.5509 239.263 34.4992 239.263 32.209C239.263 29.6801 238.762 27.533 237.76 25.7676C236.758 23.9545 235.327 22.5708 233.466 21.6165C231.605 20.6145 229.339 20.1135 226.667 20.1135C222.85 20.1135 219.892 21.2348 217.792 23.4774C215.693 25.7199 214.643 28.6304 214.643 32.209C214.643 34.5469 215.144 36.6225 216.146 38.4356C217.196 40.2487 218.627 41.6563 220.44 42.6582C222.253 43.6602 224.329 44.1612 226.667 44.1612C229.339 44.1612 231.605 43.6602 233.466 42.6582C235.375 41.6085 236.806 40.1771 237.76 38.364ZM201.045 38.2209H193.387C192.814 40.034 191.574 41.4893 189.665 42.5867C187.804 43.6841 185.49 44.2328 182.723 44.2328C180.242 44.2328 178.071 43.8034 176.21 42.9445C174.349 42.038 172.87 40.7974 171.773 39.2229C170.723 37.6006 170.079 35.7875 169.84 33.7835H201.26C201.498 29.2507 200.926 25.5052 199.542 22.5469C198.158 19.541 196.035 17.2984 193.172 15.8193C190.357 14.2925 186.826 13.5291 182.58 13.5291C178.476 13.5291 174.85 14.2925 171.701 15.8193C168.6 17.3462 166.166 19.5171 164.401 22.3322C162.635 25.1473 161.753 28.4396 161.753 32.209C161.753 36.026 162.659 39.3183 164.472 42.0857C166.285 44.8531 168.79 47.0002 171.987 48.527C175.184 50.0061 178.81 50.7457 182.866 50.7457C186.445 50.7457 189.522 50.2209 192.099 49.1712C194.675 48.0737 196.703 46.5946 198.182 44.7338C199.709 42.8252 200.663 40.6543 201.045 38.2209ZM174.349 22.4038C176.449 20.7815 179.121 19.9704 182.365 19.9704C185.514 19.9704 188.067 20.7338 190.023 22.2607C191.979 23.7398 193.053 25.8153 193.244 28.4873H170.27C170.89 26.0062 172.25 23.9784 174.349 22.4038ZM128.254 3.57724V42.941H157.169V49.9549H120.095V3.57724H128.254ZM297.179 86.5993V107.212H305.124V84.0228C305.124 81.8757 304.766 79.991 304.05 78.3687C303.382 76.6988 302.404 75.3151 301.116 74.2177C299.875 73.0725 298.372 72.2137 296.607 71.6411C294.889 71.0686 293.005 70.7823 290.953 70.7823C288.758 70.7823 286.754 71.164 284.941 71.9274C283.128 72.6431 281.553 73.6212 280.217 74.8618C278.881 76.1023 277.808 77.5338 276.997 79.156C276.553 80.0167 276.195 80.8988 275.923 81.8023V57.2555H267.979V107.212H275.923V86.0372C276.266 84.9682 276.791 83.9627 277.498 83.0208C278.643 81.494 280.122 80.2773 281.935 79.3707C283.748 78.4165 285.752 77.9393 287.947 77.9393C290.142 77.9393 291.907 78.2733 293.243 78.9413C294.579 79.6093 295.557 80.5874 296.177 81.8757C296.845 83.1163 297.179 84.6908 297.179 86.5993ZM235.822 71.5688H244.411V61.9783H252.427V71.5688H261.015V78.0817H252.427V107.211H244.411V78.0817H235.822V71.5688ZM219.291 71.5708H211.347V107.213H219.291V87.375C219.736 86.2832 220.356 85.1662 221.152 84.0241C222.249 82.4495 223.705 81.1136 225.518 80.0162C227.379 78.9187 229.597 78.37 232.174 78.37V70.7836C230.122 70.7836 228.333 71.1653 226.806 71.9287C225.327 72.6921 224.062 73.6941 223.013 74.9346C222.011 76.1275 221.2 77.368 220.579 78.6563C220.007 79.9446 219.577 81.1374 219.291 82.2348V71.5708ZM179.569 108C176.325 108 173.343 107.213 170.623 105.638C167.951 104.064 165.804 101.893 164.182 99.1255C162.607 96.3104 161.82 93.0897 161.82 89.4635C161.82 85.7418 162.631 82.4973 164.253 79.7299C165.876 76.9148 168.07 74.7199 170.838 73.1454C173.605 71.5708 176.707 70.7836 180.142 70.7836C183.959 70.7836 186.989 71.6185 189.232 73.2885C191.474 74.9585 193.073 77.201 194.027 80.0162C194.242 80.6507 194.433 81.3022 194.599 81.9707V71.5708H202.615V107.213H195.172L195.029 105.853C194.933 104.947 194.838 103.849 194.742 102.561C194.647 101.225 194.599 99.9604 194.599 98.7676V95.6901C194.027 97.8372 193.12 99.8412 191.88 101.702C190.687 103.563 189.065 105.09 187.013 106.283C185.009 107.428 182.528 108 179.569 108ZM193.096 95.6185C194.098 93.8054 194.599 91.7537 194.599 89.4635C194.599 86.9346 194.098 84.7875 193.096 83.0221C192.094 81.209 190.663 79.8253 188.802 78.871C186.941 77.869 184.675 77.368 182.003 77.368C178.186 77.368 175.228 78.4893 173.128 80.7319C171.029 82.9744 169.979 85.8849 169.979 89.4635C169.979 91.8014 170.48 93.877 171.482 95.6901C172.532 97.5032 173.963 98.9108 175.776 99.9127C177.589 100.915 179.665 101.416 182.003 101.416C184.675 101.416 186.941 100.915 188.802 99.9127C190.711 98.863 192.142 97.4316 193.096 95.6185ZM156.381 95.4754H148.723C148.15 97.2885 146.91 98.7438 145.001 99.8412C143.14 100.939 140.826 101.487 138.059 101.487C135.578 101.487 133.407 101.058 131.546 100.199C129.685 99.2925 128.206 98.0519 127.108 96.4774C126.059 94.8551 125.415 93.042 125.176 91.038H156.596C156.834 86.5052 156.262 82.7597 154.878 79.8014C153.494 76.7955 151.371 74.5529 148.508 73.0738C145.693 71.547 142.162 70.7836 137.916 70.7836C133.812 70.7836 130.186 71.547 127.037 73.0738C123.936 74.6006 121.502 76.7716 119.737 79.5867C117.971 82.4018 117.089 85.6941 117.089 89.4635C117.089 93.2805 117.995 96.5728 119.808 99.3402C121.621 102.108 124.126 104.255 127.323 105.782C130.52 107.261 134.146 108 138.202 108C141.781 108 144.858 107.475 147.435 106.426C150.011 105.328 152.039 103.849 153.518 101.988C155.045 100.08 155.999 97.9088 156.381 95.4754ZM129.685 79.6583C131.784 78.036 134.456 77.2249 137.701 77.2249C140.85 77.2249 143.403 77.9883 145.359 79.5152C147.315 80.9943 148.389 83.0698 148.58 85.7418H125.605C126.226 83.2607 127.586 81.2328 129.685 79.6583Z" fill="#47602E"/>
</svg>
